<svg class="pezazz-elem" width="383" height="353" viewBox="0 0 383 353" fill="none" xmlns="http://www.w3.org/2000/svg">
<path d="M383 167.5C383 260.008 308.008 335 215.5 335C122.992 335 48 260.008 48 167.5C48 74.9923 122.992 0 215.5 0C308.008 0 383 74.9923 383 167.5Z" fill="#2CA38B"/>
<path d="M216 245C216 304.647 167.647 353 108 353C48.3532 353 0 304.647 0 245C0 185.353 48.3532 137 108 137C167.647 137 216 185.353 216 245Z" fill="#0C2442"/>
<path d="M263 244C263 269.957 241.957 291 216 291C190.043 291 169 269.957 169 244C169 218.043 190.043 197 216 197C241.957 197 263 218.043 263 244Z" fill="#84BA9C"/>
</svg>
